<mxfile host="app.diagrams.net" modified="2021-09-01T14:03:54.716Z" agent="5.0 (Windows NT 10.0; Win64; x64) AppleWebKit/537.36 (KHTML, like Gecko) Chrome/93.0.4577.63 Safari/537.36" etag="6xwbQUifB-_XUyQ8srji" version="14.9.7" type="github">
  <diagram id="f-QhM9010iz9F7mc7vBk" name="Page-1">
    <mxGraphModel dx="1038" dy="1679" grid="1" gridSize="10" guides="1" tooltips="1" connect="1" arrows="1" fold="1" page="1" pageScale="1" pageWidth="850" pageHeight="1100" math="0" shadow="0">
      <root>
        <mxCell id="0" />
        <mxCell id="1" parent="0" />
        <mxCell id="M519DZQHmaI1ANvllGM7-7" style="edgeStyle=orthogonalEdgeStyle;rounded=0;orthogonalLoop=1;jettySize=auto;html=1;exitX=1;exitY=0.5;exitDx=0;exitDy=0;entryX=0;entryY=0.5;entryDx=0;entryDy=0;endArrow=ERoneToMany;endFill=0;" edge="1" parent="1" source="M519DZQHmaI1ANvllGM7-1" target="M519DZQHmaI1ANvllGM7-5">
          <mxGeometry relative="1" as="geometry" />
        </mxCell>
        <mxCell id="M519DZQHmaI1ANvllGM7-1" value="invoice_item_tool_tokens" style="rounded=0;whiteSpace=wrap;html=1;" vertex="1" parent="1">
          <mxGeometry x="100" y="210" width="170" height="80" as="geometry" />
        </mxCell>
        <mxCell id="M519DZQHmaI1ANvllGM7-3" value="TOKEN AUTDIT LOGS" style="text;html=1;strokeColor=none;fillColor=none;align=center;verticalAlign=middle;whiteSpace=wrap;rounded=0;" vertex="1" parent="1">
          <mxGeometry x="60" y="20" width="250" height="90" as="geometry" />
        </mxCell>
        <mxCell id="M519DZQHmaI1ANvllGM7-5" value="invoice_item_tool_token_logs" style="rounded=0;whiteSpace=wrap;html=1;" vertex="1" parent="1">
          <mxGeometry x="540" y="210" width="170" height="80" as="geometry" />
        </mxCell>
        <mxCell id="M519DZQHmaI1ANvllGM7-8" style="rounded=0;orthogonalLoop=1;jettySize=auto;html=1;exitX=0.5;exitY=1;exitDx=0;exitDy=0;endArrow=none;endFill=0;" edge="1" parent="1" source="M519DZQHmaI1ANvllGM7-6" target="M519DZQHmaI1ANvllGM7-5">
          <mxGeometry relative="1" as="geometry" />
        </mxCell>
        <mxCell id="M519DZQHmaI1ANvllGM7-6" value="&lt;span&gt;invoice_item_tool_token_id&lt;/span&gt;" style="ellipse;whiteSpace=wrap;html=1;" vertex="1" parent="1">
          <mxGeometry x="280" y="100" width="200" height="60" as="geometry" />
        </mxCell>
        <mxCell id="M519DZQHmaI1ANvllGM7-10" style="edgeStyle=none;rounded=0;orthogonalLoop=1;jettySize=auto;html=1;exitX=0.5;exitY=1;exitDx=0;exitDy=0;entryX=0.148;entryY=0.003;entryDx=0;entryDy=0;entryPerimeter=0;endArrow=none;endFill=0;" edge="1" parent="1" source="M519DZQHmaI1ANvllGM7-9" target="M519DZQHmaI1ANvllGM7-5">
          <mxGeometry relative="1" as="geometry" />
        </mxCell>
        <mxCell id="M519DZQHmaI1ANvllGM7-9" value="&lt;span&gt;id&lt;/span&gt;" style="ellipse;whiteSpace=wrap;html=1;" vertex="1" parent="1">
          <mxGeometry x="490" y="70" width="80" height="40" as="geometry" />
        </mxCell>
        <mxCell id="M519DZQHmaI1ANvllGM7-12" style="edgeStyle=none;rounded=0;orthogonalLoop=1;jettySize=auto;html=1;exitX=0.5;exitY=1;exitDx=0;exitDy=0;entryX=0.5;entryY=0;entryDx=0;entryDy=0;endArrow=none;endFill=0;" edge="1" parent="1" source="M519DZQHmaI1ANvllGM7-11" target="M519DZQHmaI1ANvllGM7-5">
          <mxGeometry relative="1" as="geometry" />
        </mxCell>
        <mxCell id="M519DZQHmaI1ANvllGM7-11" value="&lt;span&gt;type&lt;/span&gt;" style="ellipse;whiteSpace=wrap;html=1;" vertex="1" parent="1">
          <mxGeometry x="560" y="20" width="70" height="45" as="geometry" />
        </mxCell>
        <mxCell id="M519DZQHmaI1ANvllGM7-13" value="used" style="rounded=0;whiteSpace=wrap;html=1;" vertex="1" parent="1">
          <mxGeometry x="660" y="-30" width="100" height="30" as="geometry" />
        </mxCell>
        <mxCell id="M519DZQHmaI1ANvllGM7-14" value="refer" style="rounded=0;whiteSpace=wrap;html=1;" vertex="1" parent="1">
          <mxGeometry x="660" y="10" width="100" height="30" as="geometry" />
        </mxCell>
        <mxCell id="M519DZQHmaI1ANvllGM7-16" style="edgeStyle=none;rounded=0;orthogonalLoop=1;jettySize=auto;html=1;exitX=0.5;exitY=1;exitDx=0;exitDy=0;endArrow=none;endFill=0;" edge="1" parent="1" source="M519DZQHmaI1ANvllGM7-15" target="M519DZQHmaI1ANvllGM7-5">
          <mxGeometry relative="1" as="geometry" />
        </mxCell>
        <mxCell id="M519DZQHmaI1ANvllGM7-15" value="&lt;span&gt;user_id&lt;/span&gt;" style="ellipse;whiteSpace=wrap;html=1;" vertex="1" parent="1">
          <mxGeometry x="680" y="100" width="80" height="40" as="geometry" />
        </mxCell>
      </root>
    </mxGraphModel>
  </diagram>
</mxfile>
